<svg width="38" height="38" viewBox="0 0 38 38" fill="none" xmlns="http://www.w3.org/2000/svg">
<circle cx="19" cy="19" r="19" fill="#EFFAF4"/>
<path fill-rule="evenodd" clip-rule="evenodd" d="M24.8572 27.4168C26.7322 27.4168 28.2502 25.8978 28.2502 24.0238L28.2502 21.3238C27.0102 21.3238 26.0102 20.3238 26.0102 19.0848C26.0102 17.8448 27.0102 16.8458 28.2502 16.8458L28.2482 14.1428C28.2482 12.2688 26.7302 10.7498 24.8562 10.7498L13.1442 10.7498C11.2702 10.7498 9.75124 12.2688 9.75124 14.1428L9.75025 16.9328C10.9892 16.9328 11.9892 17.8448 11.9892 19.0848C11.9892 20.3238 10.9892 21.3238 9.75025 21.3238L9.75025 24.0238C9.75025 25.8978 11.2682 27.4168 13.1422 27.4168L24.8572 27.4168Z" stroke="#219653" stroke-width="1.5" stroke-linecap="round" stroke-linejoin="round"/>
<path opacity="0.4" fill-rule="evenodd" clip-rule="evenodd" d="M18.9998 20.8543L20.7398 21.7693C20.9028 21.8543 21.0938 21.7163 21.0628 21.5353L20.7298 19.5963L22.1388 18.2253C22.2708 18.0963 22.1978 17.8733 22.0158 17.8463L20.0698 17.5633L19.1988 15.7993C19.1178 15.6343 18.8828 15.6343 18.8008 15.7993L17.9298 17.5633L15.9848 17.8463C15.8028 17.8733 15.7298 18.0963 15.8618 18.2253L17.2698 19.5963L16.9368 21.5353C16.9058 21.7163 17.0968 21.8543 17.2598 21.7693L18.9998 20.8543Z" stroke="#219653" stroke-width="1.5" stroke-linecap="round" stroke-linejoin="round"/>
</svg>
